<svg width="66" height="66" viewBox="0 0 66 66" fill="none" xmlns="http://www.w3.org/2000/svg">
<path d="M64.8553 32.9504C64.7317 50.6231 50.3049 64.8494 32.6322 64.7258C14.9595 64.6021 0.733219 50.1754 0.856855 32.5027C0.980491 14.83 15.4073 0.603713 33.0799 0.727349C50.7526 0.850985 64.9789 15.2777 64.8553 32.9504Z" fill="#EBFFA8" stroke="#586D23"/>
<path d="M23.4387 30.3074C22.3172 30.5776 21.2169 30.9256 20.1462 31.3488C20.0715 31.3959 20.0127 31.4635 19.977 31.543C19.9413 31.6225 19.9303 31.7105 19.9455 31.796C19.9776 31.954 20.0638 32.0966 20.1898 32.2006C20.8095 32.7692 21.7805 32.7011 22.6205 32.5605C23.4103 32.4285 24.198 32.2645 24.9748 32.0686C25.7515 31.8727 26.4519 31.9834 27.2723 32.0941C28.9611 32.3227 30.6339 32.6201 32.2907 32.9864C28.4637 32.4136 24.5297 32.5797 20.7266 33.2547C20.3251 33.325 19.8429 33.4826 19.7775 33.8766C19.7673 34.0173 19.8027 34.1575 19.8787 34.2775C19.9546 34.3975 20.0673 34.4912 20.2007 34.5453C20.4697 34.6494 20.7584 34.6959 21.0473 34.6815L25.3806 34.7667C27.5102 34.8093 29.6746 35.6526 31.8042 35.7293C28.4004 35.4887 24.9028 35.1863 21.4946 35.3502C21.2284 35.363 20.9295 35.3928 20.7637 35.5951C20.6973 35.6874 20.6577 35.7956 20.6493 35.9081C20.6408 36.0206 20.6638 36.1332 20.7157 36.234C20.9339 36.711 21.5164 36.9006 22.0379 37.0156C23.5125 37.3015 25.0056 37.488 26.5065 37.5735L31.4398 37.9675C29.4237 37.8077 27.5232 37.8951 25.9195 39.2814C25.7803 39.3832 25.6766 39.5245 25.6228 39.686C25.5443 40.0438 25.937 40.3355 26.3014 40.4165C27.4469 40.6635 28.5509 39.867 29.7161 39.7478C30.3706 39.6818 30.9838 39.8649 31.6296 39.9203C32.1685 39.9671 32.6987 39.9373 33.2377 40.0331C34.3745 40.2461 35.4414 40.6933 36.528 41.0575C37.4968 41.3833 38.5375 41.6282 39.5696 41.5558C40.4751 41.494 41.206 41.0638 42.0308 40.7551C43.5865 40.1737 44.7713 40.6869 46.2964 41.1597C47.9169 41.6623 49.522 42.211 51.1119 42.8058C51.3785 42.92 51.6608 42.9954 51.9498 43.0294C53.3745 43.1189 55.0219 41.6857 55.5696 40.5123C56.4096 38.7171 56.5318 36.2532 55.2248 34.6496C55.1493 34.5447 55.0509 34.4575 54.9368 34.3941C54.8242 34.3471 54.7036 34.3211 54.5811 34.3174C52.8836 34.1619 51.1774 34.1896 49.4777 34.1044C47.7779 34.0193 46.1721 33.6785 44.5029 33.4485C44.3734 33.4388 44.2466 33.4078 44.1276 33.357C44.0119 33.2951 43.9085 33.2136 43.8221 33.1163C42.5806 31.8833 41.4548 30.6844 39.9296 29.7899C37.1455 28.1566 34.1061 27.473 30.9663 26.8086C30.7088 26.7532 30.4056 26.7106 30.2157 26.8874C30.1459 26.9693 30.0975 27.0666 30.0747 27.1708C30.0519 27.275 30.0553 27.3831 30.0848 27.4858C30.3488 28.9637 31.9045 29.3044 33.1199 29.7452C33.4079 29.8496 33.7744 29.9859 33.8748 30.2925C33.4013 30.2201 32.8798 30.3245 32.4107 30.2734L31.7802 30.2052C31.3583 30.1612 30.9372 30.1193 30.5168 30.0796C29.6746 30.005 28.8302 29.9475 27.9858 29.9262C26.4598 29.8698 24.9325 29.9978 23.4387 30.3074Z" fill="#E5C6A6"/>
<path d="M43.3137 47.7049C42.4606 47.5984 41.5987 47.526 40.7522 47.4259L36.2618 46.8956C35.9384 46.8661 35.618 46.8105 35.3039 46.7295C34.7335 46.5323 34.1797 46.2916 33.6479 46.0097C33.0893 45.7478 32.5045 45.5263 31.9263 45.2942C30.375 44.6702 29.2775 43.4202 27.9989 42.3767C27.7541 42.2008 27.5491 41.9775 27.3967 41.7208C27.3348 41.6226 27.3067 41.5076 27.3165 41.3926C27.3263 41.2777 27.3735 41.1688 27.4512 41.0819C27.5188 41.034 27.5954 40.9995 27.6767 40.9805C27.7579 40.9615 27.8422 40.9583 27.9247 40.9712C29.1117 41.0351 30.0739 42.151 30.9445 42.8495L31.2783 42.9559L32.9147 43.4756L33.709 43.7268C33.8212 43.7672 33.9365 43.7992 34.0537 43.8227C34.1322 43.8227 34.2413 43.8568 34.2915 43.8227C34.3417 43.7886 34.3744 43.5884 34.4093 43.6097C33.8661 43.3627 33.3184 43.0965 32.786 42.8388L31.4398 42.2C31.2225 42.1219 31.0135 42.0235 30.8157 41.9061C30.7852 41.8805 29.6593 41.0181 27.1654 38.946C26.729 38.5797 25.5159 37.7257 25.5311 37.0528C25.5573 35.988 26.9712 36.8633 27.3552 37.0997C27.9312 37.451 28.4898 37.8301 29.044 38.2113C29.8121 38.7394 30.5714 39.2796 31.3219 39.8319L32.7598 40.4239L34.2086 41.0223L34.7148 41.2353C34.7912 41.2672 35.0116 41.3822 35.077 41.3503C35.0942 41.3418 35.1074 41.3274 35.1141 41.3098C35.1433 41.2466 35.1857 41.1901 35.2385 41.1437C34.7126 40.8072 34.1017 40.5538 33.5453 40.2663L31.5401 39.2335C30.5212 38.5733 29.5284 37.8663 28.5793 37.1167C27.8609 36.5889 27.2077 35.9815 26.633 35.3066C26.3974 35.002 26.2468 34.7146 26.5239 34.3781C26.8687 33.9522 27.2592 34.2184 27.6498 34.4122C28.156 34.6634 28.6513 34.9382 29.1466 35.2129C29.8288 35.5934 30.5074 35.9838 31.1823 36.3841L36.2312 38.6883L36.3054 38.3966C36.3054 38.3966 33.0086 36.3224 29.8688 34.706C29.3168 34.4207 26.9668 33.4986 27.3574 32.6127C27.7938 31.6267 31.6907 33.5497 32.4478 33.8904L32.8427 34.1034L35.5527 35.5302L36.8138 36.1989C36.9571 36.2764 37.1076 36.3406 37.2633 36.3905C37.4005 36.4351 37.5328 36.4929 37.6582 36.563C37.6997 36.5864 37.9964 36.6674 37.9986 36.6716C37.2982 35.7687 36.1309 35.3939 35.4087 34.5421C35.1938 34.2751 35.0474 33.9618 34.9817 33.6284C34.9161 33.295 34.933 32.9512 35.0312 32.6255C35.0542 32.5357 35.1004 32.4531 35.1653 32.3857C35.2303 32.3182 35.3118 32.2681 35.4021 32.24C35.76 32.1591 36.3163 32.7596 36.5934 32.9364C37.0713 33.2409 37.5709 33.5156 38.075 33.7882C39.0241 34.2844 39.9994 34.7359 40.9267 35.2789C41.3797 35.5271 41.8046 35.8212 42.1944 36.1563C42.5849 36.5292 42.9405 36.9355 43.257 37.3701C43.7959 38.0622 44.241 38.8203 44.7494 39.5359C45.1858 40.1407 45.4346 40.8349 45.9364 41.3929C46.4382 41.9508 47.1997 42.2724 47.8543 42.628C49.9969 43.7907 52.1563 44.9265 54.3324 46.0353C55.4233 46.589 56.7325 46.8296 57.6053 47.6729C58.142 48.1925 58.2838 50.5691 57.0401 52.1706C55.7026 53.8934 53.7673 54.6813 52.613 54.3001C51.2057 53.8295 50.4813 52.2728 49.3773 51.2974C48.6769 50.6777 47.959 50.0857 47.2303 49.5065C46.6281 49.0273 46.1153 48.4055 45.3909 48.0882C44.7974 47.7922 43.9465 47.7837 43.3137 47.7049Z" fill="#EFDECD"/>
<path d="M39.024 27.363C40.4725 27.363 41.6467 26.217 41.6467 24.8033C41.6467 23.3896 40.4725 22.2435 39.024 22.2435C37.5756 22.2435 36.4014 23.3896 36.4014 24.8033C36.4014 26.217 37.5756 27.363 39.024 27.363Z" fill="white"/>
<path d="M43.8439 27.7709C43.8439 28.142 43.7312 28.5047 43.52 28.8132C43.3087 29.1218 43.0085 29.3622 42.6573 29.5042C42.306 29.6462 41.9195 29.6834 41.5466 29.611C41.1738 29.5386 40.8312 29.3599 40.5624 29.0976C40.2936 28.8352 40.1105 28.5009 40.0363 28.1369C39.9622 27.773 40.0002 27.3958 40.1457 27.0529C40.2912 26.7101 40.5376 26.4171 40.8537 26.211C41.1698 26.0048 41.5415 25.8948 41.9217 25.8948C42.1742 25.8945 42.4243 25.9428 42.6576 26.037C42.891 26.1312 43.103 26.2694 43.2815 26.4437C43.4601 26.6179 43.6017 26.8249 43.6982 27.0526C43.7947 27.2804 43.8442 27.5245 43.8439 27.7709Z" fill="white"/>
<path d="M47.0829 40.0742C47.8926 39.2207 47.8402 37.8881 46.9657 37.0978C46.0913 36.3075 44.726 36.3587 43.9162 37.2122C43.1065 38.0656 43.1589 39.3982 44.0334 40.1885C44.9078 40.9788 46.2731 40.9276 47.0829 40.0742Z" fill="white"/>
<path d="M43.8308 35.4789C43.8824 35.7761 43.8426 36.0816 43.7165 36.3567C43.5903 36.6318 43.3834 36.8643 43.1219 37.0247C42.8604 37.1851 42.556 37.2663 42.2473 37.258C41.9386 37.2496 41.6393 37.1522 41.3873 36.9779C41.1353 36.8036 40.9419 36.5603 40.8315 36.2788C40.7211 35.9973 40.6987 35.6901 40.767 35.3962C40.8354 35.1022 40.9916 34.8346 41.2157 34.6272C41.4398 34.4198 41.7219 34.2819 42.0263 34.231C42.4351 34.1637 42.8545 34.2572 43.1927 34.4911C43.5309 34.725 43.7604 35.0802 43.8308 35.4789Z" fill="white"/>
<path d="M19.7098 27.6904C23.0525 23.0459 22.8474 17.2811 19.2494 14.8151C15.6514 12.3491 10.0243 14.1166 6.68597 18.7633C4.35132 22.0109 3.35637 24.8049 4.43423 27.6372C4.89898 28.8553 10.3887 32.5096 11.4731 32.6182C14.7307 32.944 17.2028 31.1744 19.7098 27.6904Z" fill="#586D23"/>
<path d="M23.2514 11.2984L21.3907 10.0159L19.3794 12.7957L21.2401 14.0782L23.2514 11.2984Z" fill="#586D23"/>
<path d="M16.8487 14.0128L21.04 16.8211C21.2864 16.9862 21.6232 16.9251 21.7923 16.6846L22.7025 15.3907C22.8716 15.1502 22.809 14.8214 22.5626 14.6564L18.3714 11.8481C18.125 11.683 17.7882 11.7441 17.619 11.9846L16.7089 13.2785C16.5397 13.5189 16.6024 13.8477 16.8487 14.0128Z" fill="#414C19"/>
<path d="M22.1339 8.05823L27.7262 11.8063C27.7672 11.8334 27.8022 11.8682 27.8294 11.9086C27.8565 11.9491 27.8752 11.9943 27.8843 12.0419C27.8934 12.0894 27.8929 12.1382 27.8826 12.1855C27.8723 12.2327 27.8525 12.2776 27.8244 12.3174L27.3203 13.035C27.2634 13.1155 27.1762 13.1707 27.0777 13.1887C26.9792 13.2066 26.8774 13.1858 26.7945 13.1308L25.5355 12.279C25.1755 12.0382 24.7322 11.9466 24.3031 12.0245C23.874 12.1023 23.494 12.3432 23.2467 12.6943L20.2793 10.7159C20.2383 10.6888 20.2033 10.654 20.1761 10.6136C20.149 10.5731 20.1303 10.5278 20.1212 10.4803C20.112 10.4328 20.1126 10.384 20.1229 10.3367C20.1332 10.2894 20.153 10.2446 20.1811 10.2048L21.619 8.16258C21.6737 8.0828 21.7583 8.02717 21.8546 8.00765C21.9509 7.98814 22.0512 8.0063 22.1339 8.05823Z" fill="#414C19"/>
</svg>
