<svg width="65" height="65" viewBox="0 0 65 65" fill="none" xmlns="http://www.w3.org/2000/svg">
<path d="M64.5 32.5C64.5 50.1731 50.1731 64.5 32.5 64.5C14.8269 64.5 0.5 50.1731 0.5 32.5C0.5 14.8269 14.8269 0.5 32.5 0.5C50.1731 0.5 64.5 14.8269 64.5 32.5Z" fill="#EBFFA8" stroke="#586D23"/>
<path d="M10.2589 53.1671C14.4103 58.6454 21.0861 62.1655 27.985 62.5198C28.2826 62.5355 28.5817 62.5449 28.8808 62.5621C29.1177 62.5752 29.3548 62.5391 29.5769 62.4562C29.7989 62.3733 30.0011 62.2455 30.1705 62.0808C30.3398 61.9161 30.4726 61.7182 30.5604 61.4998C30.6482 61.2814 30.6891 61.0473 30.6803 60.8123C30.5221 56.5021 30.2419 50.4153 29.8637 48.805C29.4854 47.1948 29.525 44.4995 27.6732 43.5775C25.6711 42.5835 23.3778 42.4126 21.113 42.3796C18.5712 42.3436 15.8775 42.4471 13.4734 43.253C12.8369 43.4416 12.2449 43.7545 11.7324 44.1734C10.7084 45.0765 10.4868 46.45 10.3191 47.72C10.2906 47.9427 10.1608 49.8587 10.0025 52.3392C9.98368 52.6341 10.0706 52.9262 10.2478 53.1639L10.2589 53.1671Z" fill="#586D23"/>
<path d="M22.6641 31.8983C21.6781 31.6537 21.1526 30.9701 20.097 31.0454C18.5649 31.1536 17.7846 31.9203 16.9427 33.0837C16.346 33.9053 15.0703 34.4541 14.6668 35.3447C14.3629 36.0126 14.8472 36.7558 14.9833 37.4739C15.0393 37.7907 15.027 38.1157 14.9474 38.4275C14.8678 38.7394 14.7225 39.031 14.5211 39.2833C14.317 39.5358 14.059 39.7427 13.8786 40.0108C13.6333 40.3793 13.562 40.8277 13.4813 41.2652L12.978 44.2537C14.7645 44.0042 16.5788 44.0243 18.3592 44.3133C17.9081 44.2396 18.6345 42.761 18.8197 42.5885C19.2771 42.1809 20.0606 42.01 20.5686 41.5553C22.0688 40.2086 23.3675 38.6569 24.4256 36.9471C25.4971 35.213 24.8181 32.4314 22.6641 31.8983Z" fill="#294956"/>
<path d="M21.8284 40.5196C21.8101 40.6846 21.8149 40.8513 21.8427 41.0151C21.9867 41.7598 22.5913 41.8398 22.8366 42.4529C22.8781 42.5959 22.8622 42.7492 22.7923 42.8809C22.3903 43.8468 21.2618 44.51 20.1413 44.4394C19.0208 44.3689 17.9999 43.5708 17.7435 42.5579C19.3262 41.948 18.6077 40.0492 18.5349 38.9187C18.5207 38.8293 18.5311 38.7378 18.5649 38.6537C18.6504 38.497 18.8815 38.453 19.0698 38.4389C19.839 38.3794 21.4771 38.1253 21.8411 39.0018C22.0389 39.5051 21.8728 40.0226 21.8284 40.5196Z" fill="#F1D8C6"/>
<path d="M23.8652 34.4923C23.8652 31.786 17.3081 31.7844 17.3081 34.4923C17.3081 34.4923 16.9124 38.5203 19.1314 40.717C19.5519 41.1314 20.1209 41.364 20.714 41.364C21.3072 41.364 21.8762 41.1314 22.2967 40.717C24.5236 38.5219 23.8652 34.4923 23.8652 34.4923Z" fill="#F1D8C6"/>
<path d="M16.5248 36.6482C16.7527 35.7074 17.6438 36.3252 17.6438 36.3252L17.9239 38.4968C17.3177 38.6066 16.251 37.7677 16.5248 36.6482Z" fill="#F1D8C6"/>
<path d="M23.8812 37.7352C23.7989 39.1996 22.9062 40.4007 22.2985 40.8632C21.3679 41.5719 20.0653 41.6283 19.1822 40.8632C18.7501 40.4869 18.4668 40.0792 17.9429 39.9052C17.8163 39.9052 17.6913 38.5975 17.5995 37.7336C18.3609 37.3892 19.1464 37.0994 19.9498 36.8665C20.5392 36.6946 21.1601 36.6556 21.7667 36.7525C22.3733 36.8494 22.9503 37.0796 23.4554 37.4263C23.6723 37.5784 23.8194 37.6991 23.8812 37.7352Z" fill="white"/>
<path d="M17.6295 37.95C17.5727 37.353 17.4376 36.7658 17.2275 36.2033L17.4048 36.1343C17.6218 36.7138 17.7613 37.319 17.8195 37.9343L17.6295 37.95Z" fill="white"/>
<path d="M22.0198 31.9551C22.0198 31.9551 21.238 35.9643 17.3177 36.1682C15.0671 33.6955 19.7629 29.4825 22.0198 31.9551Z" fill="#294956"/>
<path d="M23.957 35.6922C22.197 34.5601 21.5149 32.1204 21.5149 32.1204C23.6721 31.7174 24.9541 33.7793 23.957 35.6922Z" fill="#294956"/>
<path d="M26.415 39.9844C26.4158 39.8081 26.3797 39.6335 26.3089 39.4717C26.0763 38.9762 25.4638 38.7599 25.1757 38.2926C24.8592 37.7768 25.0175 37.1182 25.0032 36.513C24.9804 35.9305 24.7893 35.3668 24.4527 34.8888C24.116 34.4107 23.6479 34.0384 23.104 33.8162C23.4205 34.8087 23.9935 35.9486 23.8874 37.0869C23.7925 38.117 23.8051 39.1722 23.2401 40.0848C22.9536 40.5473 22.2034 40.8233 21.974 41.289C21.1684 42.9808 21.4628 44.7525 21.1826 46.5337C23.3984 46.3863 25.622 46.3424 27.841 46.4004C27.4505 45.6183 27.2726 44.7487 27.325 43.8776C27.3567 43.3649 27.4627 42.8177 27.2206 42.3646C27.0259 42.0008 26.635 41.764 26.4688 41.3877C26.2836 40.9581 26.4261 40.4532 26.415 39.9844Z" fill="#294956"/>
<path d="M38.3547 62.9944C42.9097 61.693 47.308 59.6907 50.9846 56.7226C53.5931 54.6457 55.7471 52.0641 57.3153 49.1353C57.4858 48.7775 57.6374 48.4112 57.7695 48.0378C57.9811 47.5035 58.0486 46.9238 57.9653 46.3558C57.8821 45.7878 57.651 45.2511 57.2947 44.7984C57.035 44.4704 56.7411 44.1703 56.4179 43.9031C53.6387 41.6218 48.6327 41.9244 45.3518 42.4638C44.3855 42.6247 43.4308 42.8473 42.4935 43.1301C41.5613 43.4092 40.5515 43.7463 40.0324 44.5632C39.7807 44.9599 39.6763 45.4287 39.5766 45.8881C38.6729 50.0291 38.7995 54.5698 38.4054 58.8221C38.3816 59.0792 38.2471 61.1332 38.0746 62.7623C38.0708 62.7975 38.0758 62.833 38.0892 62.8657C38.1026 62.8985 38.1239 62.9275 38.1513 62.9501C38.1787 62.9728 38.2113 62.9884 38.2462 62.9955C38.2812 63.0027 38.3174 63.0012 38.3516 62.9912L38.3547 62.9944Z" fill="#586D23"/>
<path d="M47.3982 40.8581C47.3808 40.9412 47.3618 41.0149 47.3444 41.0792C47.3035 41.2779 47.221 41.4659 47.1023 41.6311C46.811 41.9839 46.2682 41.9933 45.8852 42.2473C45.8546 42.2638 45.8277 42.2862 45.806 42.3131C45.7843 42.34 45.7681 42.371 45.7586 42.4041C45.7396 42.5076 45.8345 42.597 45.9168 42.6597C47.623 43.903 50.486 44.5051 51.7126 42.3461C51.1967 42.0497 50.5462 41.9071 50.3895 41.2485C50.2629 40.7201 50.5794 39.9597 50.4892 39.367C50.3578 38.5219 49.3386 36.6874 48.3035 37.4228C47.5818 37.9386 47.5739 40.0538 47.3982 40.8581Z" fill="#F2DAC9"/>
<path d="M44.6633 30.2779C45.0178 30.8565 45.7933 30.626 46.3061 30.4708C46.9803 30.267 47.6545 29.9879 48.3715 30.0004C49.4208 30.0616 50.4067 30.5182 51.127 31.2767C51.8962 32.1171 51.8597 33.4718 51.2852 34.4534L45.7015 34.9818L45.5432 35.2075C43.1391 33.5063 44.6633 30.2779 44.6633 30.2779Z" fill="#294956"/>
<path d="M49.5792 40.6044C52.1526 39.5068 53.8794 37.2992 53.9617 34.9927C53.9854 34.3279 53.8683 33.6302 53.3856 33.0798C52.9028 32.5295 51.9801 32.1751 51.1809 32.3899C49.2532 34.8359 48.7325 37.7836 49.5792 40.6044Z" fill="#294956"/>
<path d="M46.4359 41.5236C46.6158 41.7004 46.8541 41.8068 47.107 41.8231C47.5059 41.8446 47.9047 41.7787 48.275 41.6302C49.2188 41.2627 49.9811 40.5457 50.4005 39.6311C51.4594 37.3701 50.8484 34.7297 50.8484 34.7297C49.9131 31.6612 44.9925 31.771 44.725 34.6999C44.7282 34.7015 44.0033 39.1168 46.4359 41.5236Z" fill="#F1D8C6"/>
<path d="M52.0592 37.5239C51.8567 36.4859 50.8501 37.1131 50.8501 37.1131L50.4323 39.4775C51.0906 39.6281 52.3014 38.7626 52.0592 37.5239Z" fill="#F1D8C6"/>
<path d="M51.0257 36.919C51.0257 36.919 49.4699 35.282 49.7928 33.1982C50.6537 33.6843 51.6192 34.8477 51.3501 35.7916C51.2979 35.9735 51.0811 36.7245 51.0336 36.919H51.0257Z" fill="#294956"/>
<path d="M45.7934 41.2047C46.0525 41.5124 46.3941 41.7414 46.7788 41.8654C47.1635 41.9894 47.5757 42.0033 47.968 41.9056C48.3398 41.8131 48.6848 41.6365 48.9762 41.3897C49.2626 41.1467 49.4874 40.8895 49.7485 40.6841C49.2211 39.7503 49.0616 38.6561 49.3006 37.6125L49.3307 37.4777C48.9619 37.3476 48.5504 37.2127 48.1357 37.0935C47.5482 36.9248 46.9325 36.8743 46.325 36.9452C45.7174 37.016 45.1304 37.2067 44.5984 37.5059C44.5763 39.1068 45.2347 40.5289 45.7934 41.2047Z" fill="white"/>
<path d="M51.0148 37.0182C50.6508 37.9292 48.7753 37.7896 48.7753 37.7896" stroke="white" stroke-width="1.2" stroke-miterlimit="10"/>
<path d="M50.4701 39.4854C50.1195 39.9875 49.6125 40.362 49.0267 40.5516" stroke="white" stroke-width="1.2" stroke-miterlimit="10"/>
<path d="M41.2764 35.8627V37.0465C41.2766 37.0769 41.2852 37.1066 41.3012 37.1324C41.3172 37.1583 41.3401 37.1793 41.3673 37.1932C41.3946 37.2071 41.4251 37.2133 41.4557 37.2113C41.4862 37.2092 41.5156 37.1988 41.5407 37.1814L42.3668 36.5887C42.3897 36.5746 42.4086 36.555 42.4217 36.5317C42.4349 36.5084 42.4417 36.4821 42.4417 36.4554C42.4417 36.4287 42.4349 36.4025 42.4217 36.3791C42.4086 36.3558 42.3897 36.3362 42.3668 36.3221L41.5407 35.7295C41.5159 35.7115 41.4865 35.7007 41.4559 35.6982C41.4253 35.6958 41.3946 35.7018 41.3672 35.7156C41.3398 35.7294 41.3168 35.7505 41.3008 35.7764C41.2847 35.8024 41.2763 35.8323 41.2764 35.8627Z" fill="#294956"/>
<path d="M27.0733 36.5887L27.8995 37.1814C27.9245 37.1988 27.9539 37.2092 27.9845 37.2113C28.015 37.2133 28.0456 37.2071 28.0728 37.1932C28.1001 37.1793 28.1229 37.1583 28.139 37.1324C28.155 37.1066 28.1636 37.0769 28.1638 37.0465V35.8627C28.1639 35.8323 28.1554 35.8024 28.1394 35.7764C28.1233 35.7505 28.1004 35.7294 28.073 35.7156C28.0456 35.7018 28.0149 35.6958 27.9842 35.6982C27.9536 35.7007 27.9243 35.7115 27.8995 35.7295L27.0733 36.3221C27.0504 36.3362 27.0315 36.3558 27.0184 36.3791C27.0053 36.4025 26.9984 36.4287 26.9984 36.4554C26.9984 36.4821 27.0053 36.5084 27.0184 36.5317C27.0315 36.555 27.0504 36.5746 27.0733 36.5887Z" fill="#294956"/>
<path d="M41.9158 36.6439H27.526C27.4756 36.6439 27.4273 36.6241 27.3917 36.5888C27.3561 36.5536 27.3361 36.5057 27.3361 36.4558C27.3361 36.4059 27.3561 36.358 27.3917 36.3228C27.4273 36.2875 27.4756 36.2676 27.526 36.2676H41.9158C41.9661 36.2676 42.0144 36.2875 42.0501 36.3228C42.0857 36.358 42.1057 36.4059 42.1057 36.4558C42.1057 36.5057 42.0857 36.5536 42.0501 36.5888C42.0144 36.6241 41.9661 36.6439 41.9158 36.6439Z" fill="#294956"/>
</svg>
