<svg width="65" height="65" viewBox="0 0 65 65" fill="none" xmlns="http://www.w3.org/2000/svg">
<path d="M64.5 32.5C64.5 50.1731 50.1731 64.5 32.5 64.5C14.8269 64.5 0.5 50.1731 0.5 32.5C0.5 14.8269 14.8269 0.5 32.5 0.5C50.1731 0.5 64.5 14.8269 64.5 32.5Z" fill="#EBFFA8" stroke="#586D23"/>
<path d="M45.6737 36.2044C45.5657 36.5742 45.2346 36.8668 44.9212 37.1321C42.0653 39.5437 38.7756 42.0357 34.884 42.0277C32.5097 42.0277 28.6871 41.3364 27.0316 39.69L25.1743 37.8476C24.4325 37.1096 23.6392 36.2495 23.7225 35.251C23.8163 34.1128 24.7618 33.1417 25.2115 32.1095C25.7427 30.9149 25.9356 29.6095 26.2313 28.3554C26.6106 26.8282 27.3499 25.3939 28.3985 24.1512C29.3918 23 30.4541 22.865 31.6474 22.127C36.1322 19.4276 41.3536 21.7685 42.8125 27.111C42.9327 27.554 43.0255 28.0027 43.0905 28.4551C43.3578 30.9037 44.1847 32.8282 45.3816 35.0115C45.5586 35.3507 45.7587 35.7173 45.7003 36.0919C45.6932 36.1273 45.6843 36.1658 45.6737 36.2044Z" fill="#294956"/>
<path d="M23.9898 57.3385C23.5921 54.5421 23.1931 51.7463 22.7929 48.9509C22.4654 46.6583 22.3273 44.0875 21.5536 41.8993C21.0012 40.3463 26.6669 39.372 27.6832 39.0794C29.4024 38.5842 31.1358 38.0858 32.9293 37.9121C36.7537 37.5391 40.5586 38.6581 44.1156 39.991C44.4697 40.1244 44.8486 40.282 45.0222 40.5922C45.1271 40.8354 45.1595 41.0994 45.116 41.3575C44.8416 45.1502 44.576 48.9139 44.2484 52.7082C44.1741 53.57 44.0714 59.2791 42.462 59.2807L24.7016 59.6022L23.9898 57.3385Z" fill="#586D23"/>
<path d="M16.9518 58.0992C16.279 58.1748 15.4752 57.9497 14.8077 57.5558C10.5584 55.0493 14.96 52.2969 16.2684 50.6055L19.289 46.7051C19.2801 46.7148 21.2808 47.9351 21.4136 48.0428C22.5379 48.9897 21.9058 49.9496 21.5907 50.9882C20.9359 53.1411 19.8996 55.1828 18.5223 57.0333C18.2178 57.4465 17.8654 57.8565 17.3024 58.0285C17.1884 58.0625 17.071 58.0862 16.9518 58.0992Z" fill="#F2DAC9"/>
<path d="M22.2528 50.922C22.2298 50.9847 22.2086 51.0474 22.1856 51.1117C21.4561 51.0796 20.9922 51.0747 20.2769 50.8304C19.6118 50.6098 18.972 50.3309 18.3665 49.9976C18.0584 49.8255 15.4893 48.8721 15.3884 49.057C16.2253 47.534 17.0634 46.0125 17.9026 44.4926C18.1654 43.978 18.4782 43.4857 18.8375 43.0215C19.7564 41.909 21.1551 41.2257 22.506 40.5778C24.6059 39.5713 25.9993 42.0939 25.516 43.7933C25.1725 45.02 24.2518 45.975 23.7454 47.1245C23.193 48.3625 22.7043 49.6487 22.2528 50.922Z" fill="#586D23"/>
<path d="M30.5833 37.9408C30.4438 38.1203 30.2699 38.2755 30.0698 38.399C29.9848 38.4489 29.8928 38.5083 29.8821 38.6C29.8715 38.6916 29.9547 38.7608 30.0256 38.8122C30.7001 39.3428 32.5592 41.9714 33.5206 41.7672C33.7454 41.6946 33.9388 41.5589 34.073 41.3798L36.0915 39.2109C36.1284 39.1807 36.1578 39.1437 36.178 39.1024C36.1981 39.0612 36.2084 39.0165 36.2083 38.9714C36.1823 38.8926 36.124 38.8258 36.0454 38.7849C34.3191 37.6096 34.629 35.37 34.2253 33.5452C34.0022 32.5516 33.7172 31.2043 32.5433 31.9857C31.8174 32.468 31.6474 34.1594 31.4721 34.8797C31.249 35.8009 31.2313 37.1112 30.5833 37.9408Z" fill="#F2DAC9"/>
<path d="M41.1622 28.4116C41.6686 26.1446 38.9136 24.4613 35.9231 23.9227C32.938 23.3552 29.6802 23.9227 29.1738 26.1913C29.1738 26.1913 26.9624 32.767 30.1653 37.1657C30.4306 37.5681 30.7852 37.9159 31.2067 38.1869C31.6282 38.458 32.1072 38.6463 32.6132 38.7399C33.1193 38.8335 33.6412 38.8304 34.1459 38.7307C34.6505 38.631 35.1268 38.437 35.5442 38.1609C40.3778 35.2525 41.1622 28.4116 41.1622 28.4116Z" fill="#F1D8C6"/>
<path d="M26.9005 29.5111C27.6637 28.0271 29.0482 29.3503 29.0482 29.3503L28.7508 33.0594C27.6105 33.0385 25.9905 31.2828 26.9005 29.5111Z" fill="#F1D8C6"/>
<path d="M41.8316 32.2787C41.7661 30.6404 39.9247 31.3638 39.9247 31.3638L38.6074 34.8848C39.6644 35.2723 41.9095 34.2272 41.8316 32.2787Z" fill="#F1D8C6"/>
<path d="M28.0355 29.4041C30.0964 28.2787 30.5001 25.224 34.4555 24.65C30.971 21.8075 26.1622 26.2417 28.0355 29.4041Z" fill="#294956"/>
<path d="M40.2752 32.8109C39.9742 34.3126 39.5404 36.5875 39.3014 36.5747C38.2745 36.8206 37.6742 37.5055 36.7925 38.1149C35.9223 38.7168 34.8424 39.0137 33.7506 38.9511C32.6589 38.8885 31.6286 38.4706 30.8488 37.774C30.0804 37.0698 29.6094 36.3271 28.625 35.9637C28.386 35.9492 28.3381 33.647 28.2921 32.1244C29.7482 31.4683 31.282 30.965 32.8637 30.6244C33.9071 30.414 34.9947 30.4758 36.0011 30.8029C37.5067 31.3195 38.941 31.9934 40.2752 32.8109Z" fill="#97AEBA"/>
<path d="M52.3717 55.0856C52.4053 54.2817 52.1238 53.4987 51.8405 52.7463C51.5218 51.8781 51.2037 51.0094 50.8862 50.1401C50.5002 49.0887 50.0168 47.9295 49.0306 47.5099C48.3773 47.2333 47.6443 47.3491 46.952 47.4665C46.1925 47.5967 45.2912 47.8523 45.0682 48.6337C44.9371 49.0887 45.0947 49.5742 45.2452 50.0196L46.5041 53.6241C46.906 54.7753 47.3469 55.9843 48.2498 56.7512C49.668 57.9473 52.2831 57.1676 52.3717 55.0856Z" fill="#F2DAC9"/>
<path d="M38.9313 23.302C37.7415 22.519 36.3304 22.0078 35.0627 21.9579C33.5878 21.9017 29.728 22.7329 30.0751 24.4982C30.1795 25.0271 30.6452 25.4403 31.1622 25.7426C32.4016 26.4661 33.7613 27.085 34.9069 27.8793C36.1463 28.733 37.3609 29.5143 38.8623 30.0883C39.5599 30.3536 40.4186 30.5706 41.1498 30.2491C42.2865 29.7459 41.8102 27.3905 41.5447 26.4612C41.2012 25.257 40.1884 24.1284 38.9313 23.302Z" fill="#294956"/>
<path d="M44.76 49.5449C44.8306 49.5482 44.9012 49.5378 44.9671 49.5144C45.987 49.1478 47.0227 48.807 48.0302 48.4131C48.9402 48.0578 49.9353 47.9758 50.8153 47.5722C49.871 46.1017 48.9302 44.6306 47.993 43.159C47.6961 42.6604 47.3506 42.1869 46.9608 41.7442C45.9675 40.6863 44.5245 40.0834 43.1311 39.5126C40.9675 38.6283 39.7493 41.2249 40.3425 42.8985C40.8205 44.2506 42.0865 45.6558 42.8673 46.8922C43.1948 47.4099 43.9172 49.4999 44.76 49.5449Z" fill="#586D23"/>
<path d="M44.3262 45.0156C44.4058 44.6233 46.8049 43.7632 47.2511 43.6378C48.0142 43.4255 52.005 53.1428 52.5149 54.1765C52.7699 54.6926 53.0231 55.2296 52.9983 55.8004C52.9381 57.2039 50.9197 57.8197 49.5865 57.8036C47.6389 57.7795 47.7026 56.8727 47.3166 55.5142C46.9118 54.0897 46.5057 52.6642 46.0985 51.2376C45.5071 49.1636 44.9164 47.0896 44.3262 45.0156Z" fill="#F2DAC9"/>
<path d="M31.196 33.8516C30.3391 34.5268 28.4251 36.0735 27.1237 35.4738C25.748 34.8403 26.6262 32.3869 26.9343 31.4544C27.0317 31.1554 26.5182 31.0283 26.4226 31.3258C26.0295 32.5252 25.1956 35.1008 26.8564 35.8966C28.4304 36.6506 30.4913 35.0477 31.5696 34.1988C31.8298 33.9962 31.4527 33.6554 31.1942 33.858L31.196 33.8516Z" fill="#97AEBA"/>
<path d="M40.3159 32.7142C40.847 31.9281 41.8261 31.6789 42.6317 32.2673C43.1806 32.6692 43.9136 33.3188 43.841 34.0117C43.8074 34.3204 44.3386 34.3188 44.3722 34.0117C44.4696 33.0712 43.4108 32.0824 42.5822 31.6419C41.58 31.1097 40.4203 31.6531 39.8573 32.4699C39.6802 32.7351 40.1353 32.9763 40.3159 32.7142Z" fill="#97AEBA"/>
<path d="M38.8943 35.4903C39.1634 36.4807 40.5002 36.9984 41.5395 37.0032C42.7789 37.0032 43.935 36.2733 44.1351 35.1318C44.19 34.8279 43.6783 34.6977 43.6234 35.0032C43.4588 35.9341 42.5611 36.5273 41.5395 36.5209C40.7445 36.5209 39.6149 36.1286 39.4148 35.3617C39.3334 35.0611 38.8199 35.1881 38.9031 35.4903H38.8943Z" fill="#97AEBA"/>
<path d="M18.2903 45.0795C18.2436 44.931 18.2133 44.7786 18.2 44.6245C18.1699 44.2773 18.4143 44.0232 18.586 43.721L19.5935 41.9525L20.886 39.6871C20.886 39.2038 20.8812 38.7214 20.8718 38.2402C20.8635 37.4331 20.8559 36.626 20.8488 35.8189C20.8488 35.6967 20.8488 35.5729 20.8488 35.4507C20.8461 35.4041 20.8461 35.3575 20.8488 35.3109C20.87 34.925 21.3251 34.589 21.5836 34.3173L22.5149 33.3382C22.5976 33.2379 22.6862 33.1419 22.7804 33.0504C22.8759 32.9818 22.9806 32.9245 23.0921 32.8799C23.2886 32.7819 23.4904 32.6935 23.6905 32.6018C24.1331 32.3976 24.5758 32.1886 25.0361 32.0166C25.1175 31.9835 25.2016 31.9561 25.2875 31.9346C25.7001 31.8462 25.5567 32.7481 24.9086 33.1115C24.2606 33.4748 23.4515 33.7256 23.0637 34.3173C22.676 34.9089 22.2192 35.5906 22.2192 35.5906L23.7242 34.216L23.9649 33.9957C24.2397 33.7668 24.5392 33.5637 24.8591 33.3896C25.2875 33.1324 25.7231 32.8816 26.1657 32.6436C27.1643 32.1082 27.3538 32.4282 26.9448 32.9491C26.5358 33.47 24.8538 34.6581 24.8201 34.6758C24.6236 34.8141 24.5705 35.0231 24.4412 35.2015L24.0322 35.7675C23.8881 36.0125 23.7204 36.2454 23.5312 36.4636L25.7975 34.3092C25.7975 34.3092 27.2281 33.0021 27.7079 33.1565C28.1877 33.3108 26.2914 35.2835 26.2914 35.2835L24.8183 37.0971C24.8377 37.0782 24.8584 37.0605 24.8803 37.044C25.5471 36.4924 26.1818 35.9096 26.7819 35.298L27.182 34.8752C27.182 34.8752 27.5981 34.4523 27.6618 34.8671C27.7256 35.2819 27.0846 36.327 26.9377 36.5922C26.7907 36.8575 25.863 37.864 25.6841 38.4058C25.5053 38.9476 25.1282 40.7 24.4253 41.1277L23.7171 41.5537C23.3258 42.7033 23.0478 43.885 22.5821 45.0136C22.4051 45.4525 22.2581 46.1519 21.7872 46.414C21.2666 46.7066 20.3318 46.6181 19.7758 46.4767C19.4167 46.3796 19.0913 46.2 18.831 45.9552C18.5708 45.7105 18.3845 45.4088 18.2903 45.0795Z" fill="#F2DAC9"/>
<path d="M48.6217 46.4633C48.6775 46.3246 48.7184 46.1814 48.7439 46.0356C48.7987 45.706 48.5845 45.4472 48.4429 45.1481C48.1678 44.5651 47.8928 43.9809 47.6178 43.3957C47.2637 42.6454 46.9096 41.8951 46.5555 41.1448C46.598 40.6834 46.6387 40.222 46.6812 39.7606L46.8883 37.4502L46.9202 37.0981C46.9202 37.0531 46.9308 37.0081 46.9326 36.9647C46.9326 36.5949 46.5324 36.2444 46.3058 35.9679L45.4931 34.9759C45.4135 34.8795 45.3497 34.7717 45.2612 34.6833C45.175 34.6121 45.0792 34.551 44.9761 34.5016C44.7991 34.3939 44.6096 34.2975 44.4273 34.1978C44.02 33.9743 43.611 33.7476 43.1879 33.5547C43.113 33.5177 43.0348 33.4866 42.9542 33.4614C42.5664 33.3489 42.6337 34.2203 43.2251 34.6077C43.8164 34.9952 44.5707 35.2878 44.8947 35.8763C45.2187 36.4647 45.6029 37.1464 45.6029 37.1464L44.2715 35.738L44.059 35.5129C43.8143 35.2769 43.5438 35.0641 43.2516 34.8778C42.8621 34.6045 42.4673 34.3376 42.0618 34.082C41.15 33.5081 40.9428 33.8007 41.2952 34.3232C41.6475 34.8457 43.1596 36.0917 43.1826 36.1062C43.3596 36.2509 43.395 36.4534 43.5048 36.6335L43.8501 37.201C43.9696 37.4437 44.1118 37.6766 44.275 37.8972L42.2778 35.6962C42.2778 35.6962 41.0101 34.3553 40.5427 34.4727C40.0753 34.5901 41.7343 36.5933 41.7343 36.5933L43.002 38.4197C42.9851 38.4004 42.9668 38.3821 42.9471 38.3651C42.3528 37.7955 41.7908 37.1987 41.2633 36.5772L40.9092 36.148C40.9092 36.148 40.5427 35.7171 40.4489 36.1094C40.355 36.5017 40.8897 37.5403 41.0101 37.8023C41.1305 38.0644 41.9379 39.0885 42.0724 39.6143C42.207 40.14 42.4265 41.841 43.0657 42.2928L43.7049 42.7462C43.9899 43.8716 44.1652 45.0147 44.5229 46.1224C44.661 46.5533 44.7442 47.2302 45.1727 47.5099C45.6489 47.8218 46.5484 47.7977 47.0902 47.698C47.441 47.6295 47.7663 47.4798 48.0347 47.2635C48.303 47.0471 48.5052 46.7715 48.6217 46.4633Z" fill="#F2DAC9"/>
<path d="M28.6145 32.0982C28.3642 31.1492 28.2207 30.1795 28.186 29.2042C28.1665 28.8955 27.6353 28.8923 27.6548 29.2042C27.7221 30.2203 27.8106 31.2332 28.1028 32.2203C28.1232 32.2803 28.1685 32.3306 28.2291 32.3607C28.2897 32.3908 28.3608 32.3983 28.4274 32.3816C28.4939 32.3648 28.5507 32.3252 28.5856 32.2711C28.6206 32.217 28.6309 32.1526 28.6145 32.0917V32.0982Z" fill="#97AEBA"/>
<path d="M17.4228 57.179C17.056 57.3205 16.6611 57.3924 16.2625 57.3902C15.8639 57.388 15.4701 57.3117 15.1052 57.1661C10.4362 55.3847 14.9848 50.6596 16.2914 48.182L19.3013 42.4665C19.3013 42.481 21.4951 43.37 21.6367 43.4617C22.8902 44.2816 22.2652 45.6547 21.9908 47.0277C21.3919 49.9146 20.4005 52.7229 19.0393 55.388C18.733 55.9876 18.3789 56.5986 17.7893 56.9812C17.6745 57.0579 17.5518 57.1241 17.4228 57.179Z" fill="#F2DAC9"/>
</svg>
