<svg width="65" height="65" viewBox="0 0 65 65" fill="none" xmlns="http://www.w3.org/2000/svg">
<path d="M64.5 32.5C64.5 50.1731 50.1731 64.5 32.5 64.5C14.8269 64.5 0.5 50.1731 0.5 32.5C0.5 14.8269 14.8269 0.5 32.5 0.5C50.1731 0.5 64.5 14.8269 64.5 32.5Z" fill="#EBFFA8" stroke="#A2B665"/>
<path d="M37.6588 60.6384C36.743 60.588 32.8784 61.2498 32.5488 60.6208C32.3173 60.183 32.3575 59.6571 32.3902 59.164C32.6419 55.4226 31.9826 51.6813 31.336 47.9827C30.8731 45.3232 30.239 42.9758 28.8753 40.6409C27.4714 38.2381 25.9744 35.9258 25.9794 32.977C25.9794 31.3818 26.9455 32.2574 27.3733 31.4548C27.4638 31.2837 27.3733 31.0774 27.3179 30.8862C27.177 30.2899 27.6374 29.6886 28.201 29.4646C28.7646 29.2407 29.3936 29.2986 29.9975 29.3615C29.683 29.3288 30.6743 26.7825 30.8756 26.5561C32.0833 25.205 32.4783 27.5298 33.4168 27.5373C34.6446 27.5499 34.5918 25.6201 35.5127 25.1848C36.816 24.5709 37.6412 26.4026 37.9859 27.5575C38.0614 27.8091 38.1922 28.1362 38.4589 28.1336C38.5385 28.1305 38.6154 28.1043 38.6804 28.0582C39.0955 27.794 39.1408 27.2203 39.1836 26.7297C39.2263 26.2391 39.3672 25.6528 39.8377 25.5094C40.0028 25.4742 40.1745 25.4867 40.3326 25.5455C40.4908 25.6044 40.629 25.707 40.7309 25.8415C40.9306 26.113 41.0758 26.4206 41.1586 26.7473C41.521 27.877 41.8883 29.0495 41.7524 30.227C41.4203 33.0802 40.0264 35.6516 39.6113 38.4293C39.3597 40.1905 39.9182 41.4158 40.5825 43.1041C41.9975 46.6459 43.6215 50.1007 45.446 53.45C45.6599 53.8451 45.6699 57.209 45.4661 57.2518C41.838 57.9965 41.3725 60.8422 37.6588 60.6384Z" fill="#F2DAC9"/>
<path d="M52.4959 55.8176C49.1898 49.6029 48.6262 48.9161 46.8172 49.1173C41.4656 49.7313 37.3418 52.8235 32.9362 55.3848C32.2996 55.7547 31.6555 56.1145 31.0014 56.4541C30.8586 56.489 30.7267 56.5588 30.6175 56.657C30.5082 56.7553 30.425 56.8791 30.3751 57.0173C30.3253 57.1556 30.3105 57.304 30.3319 57.4494C30.3534 57.5948 30.4105 57.7326 30.4982 57.8505C31.5046 60.3011 30.5208 60.2886 31.4568 62.7618C35.2594 63.2256 39.1176 62.8436 42.7555 61.6432C46.3934 60.4427 49.7211 58.4535 52.5009 55.8176H52.4959Z" fill="#586D23"/>
<path d="M30.1736 22.7742C29.8968 22.3364 29.6125 21.8734 29.6125 21.3828C29.6063 21.1976 29.6611 21.0155 29.7685 20.8645C30.005 20.5475 30.5082 20.4242 30.9687 20.4569C32.3248 20.55 33.2105 21.6646 33.8068 22.6735C34.8585 24.4473 35.7315 26.3344 35.8196 28.2843C35.8443 28.4253 35.8368 28.5701 35.7976 28.7078C35.7583 28.8455 35.6885 28.9725 35.5932 29.0794C35.2132 29.4241 34.4911 29.2706 34.0257 28.9863C32.9362 28.322 32.9211 27.3936 32.4858 26.4702C31.9046 25.1996 30.9335 23.9768 30.1736 22.7742Z" fill="#F2DAC9"/>
<path d="M32.7828 51.8621C31.96 52.8433 30.8051 52.6421 29.6956 52.4181C26.9235 51.8382 24.2343 50.9161 21.6895 49.6731C20.7032 49.1976 19.3194 48.7045 19.0703 47.532C18.7231 45.8915 19.7472 44.2611 20.273 42.7716L21.5184 39.2517C22.0523 37.75 22.9439 36.401 24.1161 35.3213C25.2884 34.2416 26.706 33.4636 28.2463 33.0547C30.6195 32.4241 32.67 30.9266 33.993 28.8579L35.1051 27.1168L39.9258 28.8277L38.3835 35.2814C37.7286 38.0262 36.9274 40.7339 35.9832 43.3931L34.1213 48.639C33.7539 49.6832 33.4998 51.0066 32.7828 51.8621Z" fill="#586D23"/>
<path d="M40.434 25.3635L36.826 24.0778C36.5047 23.9641 36.1514 23.9827 35.8438 24.1295C35.5362 24.2762 35.2994 24.539 35.1856 24.8603L34.9339 25.5597C34.866 25.7535 34.7981 25.9472 34.7276 26.1409C34.6572 26.3347 34.5113 26.5511 34.5968 26.707C34.8056 27.0769 35.2485 27.175 35.6183 27.3084L37.0072 27.8116L38.9722 28.5085L39.7698 28.7928C40.0214 28.8834 40.273 29.0444 40.4994 28.8255C40.7762 28.5739 40.8617 28.038 40.9825 27.6984L41.2341 27.0165C41.2919 26.8556 41.317 26.6847 41.3079 26.5139C41.2989 26.3431 41.2558 26.1759 41.1813 26.0219C41.1068 25.868 41.0023 25.7305 40.874 25.6174C40.7457 25.5043 40.5961 25.418 40.434 25.3635Z" fill="#414C19"/>
<path d="M34.3445 16.0295L33.5003 18.4026C32.6054 20.9247 31.0897 23.1807 29.0931 24.9626L26.8963 26.9187C26.8368 26.971 26.792 27.038 26.7664 27.113C26.7408 27.188 26.7353 27.2684 26.7504 27.3462C26.7654 27.424 26.8006 27.4965 26.8524 27.5565C26.9041 27.6165 26.9707 27.6619 27.0455 27.6883C27.1142 27.7132 27.188 27.7213 27.2605 27.7119C27.3331 27.7024 27.4023 27.6757 27.4624 27.634L31.6967 24.6507C33.226 23.5817 34.555 22.2517 35.6226 20.7215L37.4227 18.1246L34.3445 16.0295Z" fill="#414C19"/>
<path d="M32.8886 14.5007L34.7594 15.1647L33.6436 18.3088L31.7704 17.644C31.5854 17.5784 31.4152 17.4769 31.2694 17.3455C31.1237 17.2141 31.0052 17.0552 30.9209 16.878C30.8365 16.7008 30.7879 16.5087 30.7777 16.3127C30.7676 16.1167 30.7961 15.9206 30.8618 15.7357L30.9779 15.4085C31.0436 15.2233 31.1452 15.0529 31.2768 14.907C31.4085 14.7612 31.5676 14.6427 31.745 14.5584C31.9225 14.4741 32.1149 14.4256 32.3111 14.4157C32.5073 14.4058 32.7036 14.4347 32.8886 14.5007Z" fill="#414C19"/>
<path d="M46.4222 27.4517C46.1652 27.3453 45.933 27.1868 45.7403 26.9862C45.5652 26.7486 45.4191 26.491 45.305 26.2188C44.432 24.5633 42.2858 24.1607 40.7535 25.1294C40.6051 25.2225 40.5019 25.308 40.4164 25.3558L36.8612 24.0978C36.8202 23.0877 36.5388 22.1019 36.0404 21.2223C35.5419 20.3428 34.8409 19.5948 33.9954 19.0405L32.8934 18.3285C32.755 18.2341 32.6519 18.0963 32.6005 17.9369C32.549 17.7774 32.552 17.6054 32.6091 17.4479L33.4545 15.0652C33.517 14.88 33.6503 14.7271 33.8252 14.6399C34.0001 14.5527 34.2024 14.5383 34.3879 14.5997L43.2997 17.7599C43.9635 18.0002 44.5594 18.3972 45.0369 18.9172C45.5143 19.4371 45.8592 20.0646 46.0422 20.7464L47.5519 26.1509C47.7129 26.7849 47.1896 27.8089 46.4222 27.4517Z" fill="#586D23"/>
<path d="M26.6688 36.3155C26.2971 35.859 25.9944 35.3504 25.7706 34.8059C25.3454 33.8925 24.9101 32.9339 24.9529 31.925C25.0082 30.589 25.914 29.7511 27.1947 29.9298C27.0059 29.0693 27.2576 28.0176 28.1608 27.6653C28.5752 27.5207 29.0293 27.5409 29.4292 27.7217C29.8291 27.9024 30.1443 28.23 30.3095 28.6365C30.3095 27.9849 30.3095 27.3156 30.5611 26.7168C30.8127 26.118 31.409 25.6173 32.0556 25.6752C32.7023 25.733 33.1954 26.3268 33.5879 26.8703L35.173 29.0743C35.4372 29.4442 35.714 29.8291 35.719 30.2946C35.719 31.2155 34.5767 31.7791 33.6911 31.5325C32.8054 31.2859 32.1664 30.5261 31.5877 29.8216C31.8846 30.7995 32.1823 31.7782 32.4809 32.7578C32.6293 33.2484 32.7803 33.7642 32.662 34.2674C32.5438 34.7706 32.0431 35.2135 31.5474 35.0826C31.2809 34.9834 31.0491 34.8085 30.8807 34.5794L28.2715 31.6633C29.3635 32.8836 30.0101 38.8567 27.0362 36.6476C26.9031 36.5492 26.78 36.438 26.6688 36.3155Z" fill="#F2DAC9"/>
</svg>
